<?xml version="1.0" encoding="UTF-8" standalone="no"?>
<!-- Generator: Adobe Illustrator 11.0, SVG Export Plug-In . SVG Version: 6.0.0 Build 78)  -->

<svg
   xmlns:ns3="http://ns.adobe.com/AdobeIllustrator/10.0/"
   xmlns:svg="http://www.w3.org/2000/svg"
   xmlns="http://www.w3.org/2000/svg"
   xmlns:sodipodi="http://sodipodi.sourceforge.net/DTD/sodipodi-0.dtd"
   xmlns:inkscape="http://www.inkscape.org/namespaces/inkscape"
   ns3:viewOrigin="209 447.5"
   ns3:rulerOrigin="1 0"
   ns3:pageBounds="-1 792 611 0"
   width="192.756"
   height="99.256"
   viewBox="0 0 192.756 99.256"
   overflow="visible"
   enable-background="new 0 0 192.756 99.256"
   xml:space="preserve"
   version="1.1"
   id="svg91"
   sodipodi:docname="Rosneft_Logo (1).svg"
   inkscape:version="0.92.0 unknown"><defs
     id="defs95" /><sodipodi:namedview
     pagecolor="#ffffff"
     bordercolor="#666666"
     borderopacity="1"
     objecttolerance="10"
     gridtolerance="10"
     guidetolerance="10"
     inkscape:pageopacity="0"
     inkscape:pageshadow="2"
     inkscape:window-width="1920"
     inkscape:window-height="1018"
     id="namedview93"
     showgrid="false"
     inkscape:zoom="3.2650573"
     inkscape:cx="59.042106"
     inkscape:cy="40.492595"
     inkscape:window-x="1920"
     inkscape:window-y="25"
     inkscape:window-maximized="1"
     inkscape:current-layer="svg91" /><polygon
     ns3:knockout="Off"
     points="0,0 192.756,0 192.756,99.256 0,99.256 "
     id="polygon4"
     style="clip-rule:evenodd;fill:none;fill-rule:evenodd" /><polygon
     ns3:knockout="Off"
     points="73.476,74.141 73.476,72.435 69.136,72.435 69.136,74.141 68.629,74.141 68.629,70.481 69.136,70.481 69.136,72.068 73.476,72.068 73.476,70.481 73.977,70.481 73.977,74.141 "
     id="polygon6"
     style="clip-rule:evenodd;fill:#201c26;fill-rule:evenodd" /><polygon
     ns3:knockout="Off"
     points="75.684,74.141 75.684,70.481 80.007,70.481 80.007,70.846 76.183,70.846 76.183,72.068 79.906,72.068 79.906,72.43 76.183,72.43 76.183,73.774 80.007,73.774 80.007,74.141 "
     id="polygon8"
     style="clip-rule:evenodd;fill:#201c26;fill-rule:evenodd" /><path
     ns3:knockout="Off"
     d="m 88.78,72.527 v -0.456 c 0,-0.87 -0.432,-1.308 -1.801,-1.308 h -1.49 v -0.325 h -0.508 v 0.325 h -1.472 c -1.378,0 -1.81,0.365 -1.81,1.308 v 0.456 c 0,0.931 0.488,1.253 1.81,1.253 h 1.472 v 0.36 h 0.508 v -0.36 h 1.49 c 1.314,0 1.801,-0.305 1.801,-1.253 z m -0.509,0 c 0,0.705 -0.341,0.891 -1.292,0.891 h -1.49 v -2.289 h 1.49 c 0.903,0 1.292,0.212 1.292,0.922 z m -3.29,0.891 h -1.472 c -0.952,0 -1.315,-0.186 -1.315,-0.896 v -0.487 c 0,-0.7 0.398,-0.906 1.315,-0.906 h 1.472 z"
     id="path10"
     inkscape:connector-curvature="0"
     style="clip-rule:evenodd;fill:#201c26;fill-rule:evenodd" /><polygon
     ns3:knockout="Off"
     points="92.642,70.846 92.642,74.141 93.147,74.141 93.147,70.846 95.534,70.846 95.534,70.481 90.273,70.481 90.273,70.846 "
     id="polygon12"
     style="clip-rule:evenodd;fill:#201c26;fill-rule:evenodd" /><path
     ns3:knockout="Off"
     d="m 101.905,74.141 v -3.659 h -3.29 c -1.215,0 -1.716,0.301 -1.716,1.133 0,0.688 0.501,1.009 1.459,1.009 l -1.661,1.518 H 97.4 l 1.563,-1.518 h 2.433 v 1.518 h 0.509 z m -0.509,-1.879 h -2.94 c -0.782,0 -1.055,-0.102 -1.055,-0.647 0,-0.568 0.286,-0.769 1.005,-0.769 h 2.99 z"
     id="path14"
     inkscape:connector-curvature="0"
     style="clip-rule:evenodd;fill:#201c26;fill-rule:evenodd" /><polygon
     ns3:knockout="Off"
     points="108.589,74.141 108.589,72.435 104.252,72.435 104.252,74.141 103.747,74.141 103.747,70.481 104.252,70.481 104.252,72.068 108.589,72.068 108.589,70.481 109.096,70.481 109.096,74.141 "
     id="polygon16"
     style="clip-rule:evenodd;fill:#201c26;fill-rule:evenodd" /><path
     ns3:knockout="Off"
     d="m 116.272,74.141 -2.53,-3.659 h -0.777 l -2.528,3.659 h 0.558 l 0.628,-0.918 h 3.434 l 0.622,0.918 z m -1.479,-1.292 h -2.896 l 1.444,-2.105 z"
     id="path18"
     inkscape:connector-curvature="0"
     style="clip-rule:evenodd;fill:#201c26;fill-rule:evenodd" /><path
     ns3:knockout="Off"
     d="m 122.041,74.141 v -1.518 h -2.432 l -1.571,1.518 h -0.693 l 1.649,-1.518 c -0.956,0 -1.451,-0.321 -1.451,-1.009 0,-0.832 0.495,-1.133 1.71,-1.133 h 3.297 v 3.659 h -0.509 z m 0,-3.295 h -2.989 c -0.717,0 -1.014,0.2 -1.014,0.769 0,0.546 0.276,0.647 1.062,0.647 h 2.941 z"
     id="path20"
     inkscape:connector-curvature="0"
     style="clip-rule:evenodd;fill:#201c26;fill-rule:evenodd" /><polygon
     ns3:knockout="Off"
     points="131.92,74.141 132.807,74.141 129.275,72.223 132.728,70.481 131.833,70.481 128.75,72.051 127.93,72.051 127.93,70.481 127.423,70.481 127.423,74.141 127.93,74.141 127.93,72.419 128.771,72.419 "
     id="polygon22"
     style="clip-rule:evenodd;fill:#201c26;fill-rule:evenodd" /><path
     ns3:knockout="Off"
     d="m 139.379,72.886 c 0,0.716 -0.239,0.889 -1.265,0.889 h -2.137 c -0.951,0 -1.306,-0.184 -1.306,-0.889 v -1.168 c 0,-0.712 0.389,-0.905 1.306,-0.905 h 2.137 c 0.974,0 1.265,0.181 1.265,0.905 z m 0.501,0 v -1.145 c 0,-1.064 -0.582,-1.303 -1.766,-1.303 h -2.132 c -1.387,0 -1.818,0.374 -1.818,1.303 v 1.145 c 0,0.94 0.492,1.255 1.818,1.255 h 2.132 c 1.298,0 1.766,-0.213 1.766,-1.255 z"
     id="path24"
     inkscape:connector-curvature="0"
     style="clip-rule:evenodd;fill:#201c26;fill-rule:evenodd" /><polygon
     ns3:knockout="Off"
     points="147.561,70.481 148.648,70.481 148.648,74.141 148.141,74.141 148.141,70.778 147.86,70.778 145.224,74.141 144.965,74.141 142.333,70.778 142.048,70.778 142.048,74.141 141.545,74.141 141.545,70.481 142.625,70.481 145.101,73.602 "
     id="polygon26"
     style="clip-rule:evenodd;fill:#201c26;fill-rule:evenodd" /><polygon
     ns3:knockout="Off"
     points="150.971,74.141 150.971,70.846 155.297,70.846 155.297,74.141 155.808,74.141 155.808,70.481 150.458,70.481 150.458,74.141 "
     id="polygon28"
     style="clip-rule:evenodd;fill:#201c26;fill-rule:evenodd" /><path
     ns3:knockout="Off"
     d="m 162.393,74.141 -0.621,-0.918 h -3.434 l -0.637,0.918 h -0.558 l 2.534,-3.659 h 0.768 l 2.53,3.659 z m -2.333,-3.398 -1.454,2.105 h 2.901 z"
     id="path30"
     inkscape:connector-curvature="0"
     style="clip-rule:evenodd;fill:#201c26;fill-rule:evenodd" /><polygon
     ns3:knockout="Off"
     points="169.771,74.141 169.771,70.481 169.268,70.481 169.268,72.068 164.937,72.068 164.937,70.481 164.424,70.481 164.424,74.141 164.937,74.141 164.937,72.435 169.268,72.435 169.268,74.141 "
     id="polygon32"
     style="clip-rule:evenodd;fill:#201c26;fill-rule:evenodd" /><polygon
     ns3:knockout="Off"
     points="176.857,74.141 176.857,70.481 175.871,70.481 172.011,73.856 171.967,73.856 171.967,70.481 171.468,70.481 171.468,74.141 172.289,74.141 176.159,70.764 176.346,70.764 176.346,74.141 "
     id="polygon34"
     style="clip-rule:evenodd;fill:#201c26;fill-rule:evenodd" /><path
     ns3:knockout="Off"
     d="m 182.965,72.262 h -2.947 c -0.786,0 -1.05,-0.102 -1.05,-0.647 0,-0.568 0.278,-0.769 0.995,-0.769 h 3.002 z m 0.497,1.879 v -3.659 h -3.287 c -1.207,0 -1.714,0.301 -1.714,1.133 0,0.688 0.507,1.009 1.462,1.009 l -1.667,1.518 h 0.712 l 1.555,-1.518 h 2.442 v 1.518 h 0.497 z"
     id="path36"
     inkscape:connector-curvature="0"
     style="clip-rule:evenodd;fill:#201c26;fill-rule:evenodd" /><path
     ns3:knockout="Off"
     d="m 68.585,79.563 c 0,0 10.996,-0.148 11.877,0.442 0.88,0.582 1.759,1.176 1.906,2.343 0.146,1.174 -0.586,4.834 -3.373,4.983 -2.783,0.146 -6.004,-0.149 -6.004,-0.149 l -0.144,2.933 -4.398,-0.146 z"
     id="path38"
     inkscape:connector-curvature="0"
     style="clip-rule:evenodd;fill:#201c26;fill-rule:evenodd" /><path
     ns3:knockout="Off"
     d="m 73.133,82.492 -0.142,1.762 c 0,0 3.514,0.73 4.246,0 0.733,-0.731 0.145,-1.905 -1.024,-1.905 -1.17,0 -3.08,0.143 -3.08,0.143 z"
     id="path40"
     inkscape:connector-curvature="0"
     style="clip-rule:evenodd;fill:#ffffff;fill-rule:evenodd" /><path
     ns3:knockout="Off"
     d="m 82.369,82.349 c 1.178,-1.317 3.228,-3.371 7.91,-3.08 4.691,0.295 7.188,2.195 7.188,4.406 0,2.191 0.139,5.121 -2.645,5.996 -2.781,0.884 -5.57,0.884 -7.473,0.596 -1.906,-0.297 -4.98,-2.059 -5.418,-4.4 -0.441,-2.345 0.438,-3.518 0.438,-3.518 z"
     id="path42"
     inkscape:connector-curvature="0"
     style="clip-rule:evenodd;fill:#241c24;fill-rule:evenodd" /><path
     ns3:knockout="Off"
     d="m 86.768,85.131 c -0.268,-1.893 1.314,-3.079 2.633,-3.079 1.317,0 3.51,0.149 3.365,2.642 -0.143,2.489 -0.284,2.342 -1.602,2.784 -1.32,0.439 -3.959,0.883 -4.396,-2.347 z"
     id="path44"
     inkscape:connector-curvature="0"
     style="clip-rule:evenodd;fill:#ffffff;fill-rule:evenodd" /><path
     ns3:knockout="Off"
     d="m 113.137,83.675 c -0.729,-1.326 -2.336,-3.822 -4.833,-3.963 -2.49,-0.148 -5.863,-0.443 -7.473,0.141 -1.616,0.592 -2.924,2.052 -3.221,3.371 -0.291,1.323 -0.593,4.254 1.317,5.572 1.903,1.319 4.988,2.348 7.914,1.759 2.925,-0.585 5.712,-1.759 6.152,-4.251 -1.462,0 -4.979,0 -4.979,0 0,0 -1.325,1.761 -2.931,1.613 0,0 -1.475,0.444 -2.497,-1.019 -1.02,-1.473 -0.877,-2.79 0.146,-4.111 1.035,-1.323 3.813,-0.883 4.108,-0.295 0.291,0.588 0.731,1.465 0.731,1.465 z"
     id="path46"
     inkscape:connector-curvature="0"
     style="clip-rule:evenodd;fill:#241c24;fill-rule:evenodd" /><polygon
     ns3:knockout="Off"
     points="112.702,79.853 117.247,79.853 117.247,83.375 121.782,83.375 121.782,79.563 126.476,79.563 126.476,90.115 122.076,90.115 122.076,86.598 117.394,86.598 117.394,90.115 112.554,90.115 "
     id="polygon48"
     style="clip-rule:evenodd;fill:#241c24;fill-rule:evenodd" /><polygon
     ns3:knockout="Off"
     points="127.946,79.563 140.987,79.712 140.987,82.349 133.076,82.349 133.076,83.375 139.671,83.375 139.671,86.304 132.779,86.304 132.779,87.629 141.278,87.629 141.278,90.409 128.09,90.409 "
     id="polygon50"
     style="clip-rule:evenodd;fill:#241c24;fill-rule:evenodd" /><path
     ns3:knockout="Off"
     d="m 147.726,79.563 h 4.544 c 0,0 -0.29,0.735 0.302,0.59 0.577,-0.147 4.534,-0.301 5.711,1.172 1.169,1.462 1.612,3.368 0.435,4.688 -1.177,1.32 -2.201,1.904 -2.926,1.904 -0.74,0 -3.22,0.147 -3.22,0.147 v 2.345 h -4.846 v -2.492 c 0,0 -3.079,-0.147 -4.104,-0.439 -1.021,-0.295 -2.931,-1.465 -2.931,-3.369 0,-1.907 1.026,-3.521 2.497,-3.664 1.459,-0.146 4.245,-0.146 4.245,-0.146 z"
     id="path52"
     inkscape:connector-curvature="0"
     style="clip-rule:evenodd;fill:#241c24;fill-rule:evenodd" /><path
     ns3:knockout="Off"
     d="m 147.726,82.787 -0.146,2.197 c 0,0 -2.343,0.295 -2.343,-0.579 0,-0.883 0.442,-1.763 2.489,-1.618 z"
     id="path54"
     inkscape:connector-curvature="0"
     style="clip-rule:evenodd;fill:#ffffff;fill-rule:evenodd" /><path
     ns3:knockout="Off"
     d="m 152.571,82.933 0.139,2.052 c 0,0 1.319,0.589 2.057,-0.438 0.724,-1.025 -0.594,-1.76 -2.196,-1.614 z"
     id="path56"
     inkscape:connector-curvature="0"
     style="clip-rule:evenodd;fill:#ffffff;fill-rule:evenodd" /><path
     ns3:knockout="Off"
     d="m 161.793,82.787 v 7.768 h 4.688 v -7.768 h 4.247 l 0.887,-1.169 -1.318,-1.612 h -12.31 c 0.003,0 -0.589,2.343 0.729,2.486 1.318,0.15 3.077,0.295 3.077,0.295 z"
     id="path58"
     inkscape:connector-curvature="0"
     style="clip-rule:evenodd;fill:#241c24;fill-rule:evenodd" /><path
     ns3:knockout="Off"
     d="m 175.42,80.006 v 2.927 c 0,0 5.574,-0.291 6.601,0.291 1.025,0.588 2.05,1.47 2.196,2.49 0.146,1.032 -0.146,2.647 -1.171,3.522 -1.025,0.879 -2.194,1.464 -3.376,1.464 -1.169,0 -8.492,0 -8.492,0 V 80.153 Z"
     id="path60"
     inkscape:connector-curvature="0"
     style="clip-rule:evenodd;fill:#241c24;fill-rule:evenodd" /><path
     ns3:knockout="Off"
     d="m 175.867,86.013 v 1.757 c 0,0 2.195,0 2.926,0 0.729,0 1.76,-1.611 0.438,-1.903 -1.316,-0.294 -3.364,0.146 -3.364,0.146 z"
     id="path62"
     inkscape:connector-curvature="0"
     style="clip-rule:evenodd;fill:#ffffff;fill-rule:evenodd" /><polygon
     ns3:knockout="Off"
     points="8.504,31.203 15.981,31.203 15.981,56.558 8.504,49.96 "
     id="polygon64"
     style="clip-rule:evenodd;fill:#241c24;fill-rule:evenodd" /><polygon
     ns3:knockout="Off"
     points="17.448,22.851 24.628,22.851 24.628,64.766 17.448,57.869 "
     id="polygon66"
     style="clip-rule:evenodd;fill:#241c24;fill-rule:evenodd" /><polygon
     ns3:knockout="Off"
     points="26.096,14.499 33.424,14.499 33.424,54.211 26.096,54.211 "
     id="polygon68"
     style="clip-rule:evenodd;fill:#241c24;fill-rule:evenodd" /><polygon
     ns3:knockout="Off"
     points="34.884,6.146 42.505,6.146 42.505,46.005 34.884,46.005 "
     id="polygon70"
     style="clip-rule:evenodd;fill:#241c24;fill-rule:evenodd" /><polygon
     ns3:knockout="Off"
     points="43.531,14.055 50.861,14.055 50.861,54.211 43.531,54.211 "
     id="polygon72"
     style="clip-rule:evenodd;fill:#241c24;fill-rule:evenodd" /><polygon
     ns3:knockout="Off"
     points="52.62,22.697 59.8,22.697 59.8,57.724 52.62,64.766 "
     id="polygon74"
     style="clip-rule:evenodd;fill:#241c24;fill-rule:evenodd" /><polygon
     ns3:knockout="Off"
     points="61.115,31.055 68.449,31.055 68.449,49.376 61.115,56.558 "
     id="polygon76"
     style="clip-rule:evenodd;fill:#241c24;fill-rule:evenodd" /><polygon
     ns3:knockout="Off"
     points="26.096,55.097 33.424,55.097 33.424,91.868 26.096,91.868 "
     id="polygon78"
     style="clip-rule:evenodd;fill:#b3b31c;fill-rule:evenodd" /><polygon
     ns3:knockout="Off"
     points="34.884,47.183 42.062,47.183 42.062,91.868 34.884,91.868 "
     id="polygon80"
     style="clip-rule:evenodd;fill:#b3b31c;fill-rule:evenodd" /><polygon
     ns3:knockout="Off"
     points="43.531,55.237 50.861,55.237 50.861,91.868 43.531,91.868 "
     id="polygon82"
     style="clip-rule:evenodd;fill:#b3b31c;fill-rule:evenodd" /></svg>