<svg xmlns="http://www.w3.org/2000/svg" viewBox="0 0 301.71 131.95" width="302" height="132"><title>russneft-logo-ru</title><path d="M158.16,420.59c0-31.88,57-58.59,133.47-65.5C209.83,360,147.2,387.55,147.2,420.78c0,34.94,69.24,63.59,157.2,66.26C221.58,482.09,158.16,454.22,158.16,420.59Z" transform="translate(-147.2 -355.09)" style="fill:#036db3"/><path d="M326.34,453.71H314.26l9.18-51.92h12.09L332.11,421h6.44l3.4-19.25H354l-9.17,51.92H332.78l4.38-24.82h-6.43Z" transform="translate(-147.2 -355.09)" style="fill:#036db3"/><path d="M362.84,430.74a1.88,1.88,0,0,1,2-1.77c1.14,0,1.61.59,1.4,1.77l-.73,4h-3.43Zm11.45,1.19a13.23,13.23,0,0,0,.15-1.87,5.66,5.66,0,0,0-2.55-5.16,11.39,11.39,0,0,0-6.08-1.35,12.69,12.69,0,0,0-7.75,2.19,9.22,9.22,0,0,0-3.65,6.18l-2.49,14.19a8.17,8.17,0,0,0-.16,1.51,5.47,5.47,0,0,0,2.55,4.89,11,11,0,0,0,6.14,1.51,13.87,13.87,0,0,0,7.43-1.76,8.47,8.47,0,0,0,3.85-5.95l.78-4.36h-8.16l-.67,3.81a5.54,5.54,0,0,1-.78,2.12,1.67,1.67,0,0,1-1.45.72c-.86,0-1.29-.6-1.29-1.82v-1l1-6h11.67Z" transform="translate(-147.2 -355.09)" style="fill:#231f20"/><path d="M399.08,430.35c.8,0,1.21.42,1.21,1.26v.3a1.45,1.45,0,0,1-.06.41l-2.2,12.9c-.27,1.34-.91,2-1.88,2a1.27,1.27,0,0,1-1.43-1.44v-.23a1.27,1.27,0,0,1,0-.34l2.2-12.9C397.25,431,398,430.35,399.08,430.35Zm-9.4-2.53a4.41,4.41,0,0,0-1-3.31,4.77,4.77,0,0,0-3.35-1,6.25,6.25,0,0,0-5.1,2.39,11.32,11.32,0,0,0-2.13,5.2l-2.86,16.43c0,.21-.08.5-.13.86a7.14,7.14,0,0,0-.08,1A4.21,4.21,0,0,0,379.8,454a5.91,5.91,0,0,0,3.61-1.1,8.3,8.3,0,0,0,2.46-3.18L384,460.28h8.06l2-10.38a3.85,3.85,0,0,0,1.17,3.15,5.29,5.29,0,0,0,3.46,1,6.22,6.22,0,0,0,5.09-2.39,11,11,0,0,0,2.08-5l2.92-16.44c0-.2.07-.5.13-.88a10.26,10.26,0,0,0,.07-1,4.89,4.89,0,0,0-1.14-3.46,4.78,4.78,0,0,0-3.63-1.22,6.27,6.27,0,0,0-3.79,1.17,8.26,8.26,0,0,0-2.59,3.23l2-11.35h-8.06Zm-1.81,2.53c.79,0,1.19.42,1.19,1.26a5.19,5.19,0,0,1-.1.71l-2.21,12.9c-.28,1.34-.9,2-1.84,2s-1.21-.42-1.21-1.28v-.31a1.07,1.07,0,0,1,.1-.41l2.2-12.9C386.28,431,386.9,430.35,387.87,430.35Z" transform="translate(-147.2 -355.09)" style="fill:#231f20"/><path d="M428.37,429.28h-4.21l-4.32,24.43h-8.21l4.29-24.43h-4.16l.95-5.41h16.6Z" transform="translate(-147.2 -355.09)" style="fill:#231f20"/><path d="M439.86,440.49a1.89,1.89,0,0,1,.65,1.68,11,11,0,0,1-.21,2.08,7.39,7.39,0,0,1-1.25,3.47,4.32,4.32,0,0,1-3,.73l1.5-8.4A4.22,4.22,0,0,1,439.86,440.49Zm9.05-.19q0-3.49-2.39-4.54-1.92-.83-8.09-.83l2-11.07h-8.22L427,453.71h8.2c4.79,0,8-.56,9.7-1.69s2.87-3.7,3.61-7.7A26.6,26.6,0,0,0,448.91,440.3Z" transform="translate(-147.2 -355.09)" style="fill:#231f20"/><path d="M378.18,406.63c2.38,9.58-6.47,14.13-11.63,13.33s-12.22-7.81-7.06-16.23c5.6-9.15,12.8-20.84,12.8-20.84S376,398,378.18,406.63Z" transform="translate(-147.2 -355.09)" style="fill:#231f20"/><path d="M373.3,404a3.14,3.14,0,1,1-5.62-.87l3.85-6.27S372.65,401.41,373.3,404Z" transform="translate(-147.2 -355.09)" style="fill:#fff"/><path d="M220.52,400.64q3.67,0,3.68,3.31a19.09,19.09,0,0,1-.26,2.41c-.17,1.13-.3,2-.4,2.7q-.89,4.89-2,6.62c-.73,1.15-2.11,1.73-4.11,1.73h-1.92l3.09-16.77ZM214.23,425h4.45a19,19,0,0,0,10.2-2.7,12.15,12.15,0,0,0,5.91-8.53l1.67-9.47a17.34,17.34,0,0,0,.22-2.63c0-3.25-1.26-5.54-3.79-6.85-2.14-1.12-5.56-1.68-10.28-1.68H207.82l-9.19,52h12.1Z" transform="translate(-147.2 -355.09)" style="fill:#ed2224;stroke:#fff;stroke-width:1.9091px"/><path d="M239.11,407.78h8.64l-.91,21.39,6.77-21.39h7.2l-12.66,32.6q-2,5.24-7.89,5.24h-6.87l1-5.66h4.45c1,0,1.57-.28,1.68-.86v-1.35Z" transform="translate(-147.2 -355.09)" style="fill:#231f20"/><path d="M276.72,421.83l.9-5.39v-.73c0-1.29-.6-1.94-1.79-1.94a2.31,2.31,0,0,0-1.81.76,3.25,3.25,0,0,0-.83,1.88l-3.5,19.68v.79c0,1.23.59,1.85,1.76,1.85a2.26,2.26,0,0,0,1.8-.72,3.81,3.81,0,0,0,.81-1.9l1.05-7.91h10.32l-1,7.56a10.69,10.69,0,0,1-4.85,7.51q-3.54,2.22-9.44,2.22c-3.54,0-6.23-.66-8.09-2a6.89,6.89,0,0,1-2.78-6,10.56,10.56,0,0,1,.09-1.31c.07-.49.12-.86.17-1.12l3.08-17.54a11.68,11.68,0,0,1,4.66-7.58,15.54,15.54,0,0,1,9.64-2.92q5.06,0,7.74,1.71c2.15,1.37,3.22,3.54,3.22,6.53a16.33,16.33,0,0,1-.2,2.37l-.59,4.21Z" transform="translate(-147.2 -355.09)" style="fill:#231f20;stroke:#fff;stroke-width:1.9091px"/><path d="M305.58,422l.9-5.39v-.73c0-1.3-.59-1.94-1.78-1.94a2.33,2.33,0,0,0-1.82.76,3.31,3.31,0,0,0-.83,1.88l-3.5,19.68V437c0,1.23.59,1.85,1.77,1.85a2.23,2.23,0,0,0,1.79-.72,3.85,3.85,0,0,0,.82-1.9l1-7.91h10.32l-1,7.56a10.67,10.67,0,0,1-4.85,7.51c-2.36,1.48-5.5,2.22-9.44,2.22q-5.29,0-8.09-2a6.91,6.91,0,0,1-2.78-6,9.26,9.26,0,0,1,.1-1.32c.06-.48.12-.85.16-1.11l3.08-17.54a11.65,11.65,0,0,1,4.66-7.58,15.55,15.55,0,0,1,9.65-2.92c3.36,0,5.95.57,7.74,1.71q3.21,2,3.21,6.53a16.33,16.33,0,0,1-.2,2.37L316,422Z" transform="translate(-147.2 -355.09)" style="fill:#231f20;stroke:#fff;stroke-width:1.9091px"/><path d="M241.66,404.24h-2l1.59-10h2l-.61,3.78,3.08-3.78h2.45l-3.29,3.87,1.83,6.1h-2.39L243.16,400l-1,1.12Z" transform="translate(-147.2 -355.09)" style="fill:#231f20"/><path d="M254.93,396.83a2.74,2.74,0,0,1,.28,1.37,6.06,6.06,0,0,1-.09,1.06,5.94,5.94,0,0,1-.66,2,1.87,1.87,0,0,1-1.63,1,1.22,1.22,0,0,1-1.13-.6,2.66,2.66,0,0,1-.28-1.33,5.24,5.24,0,0,1,0-.56c0-.18,0-.36.07-.54a5.94,5.94,0,0,1,.66-2,1.85,1.85,0,0,1,1.63-1A1.21,1.21,0,0,1,254.93,396.83Zm.44,6.4a7.22,7.22,0,0,0,1.78-4q.08-.45.09-.66c0-.15,0-.39,0-.74a4.21,4.21,0,0,0-.9-2.9,2.79,2.79,0,0,0-2.21-.94,3.88,3.88,0,0,0-2.87,1.27,7.18,7.18,0,0,0-1.78,4,9.71,9.71,0,0,0-.13,1.42,4.21,4.21,0,0,0,.9,2.9,2.83,2.83,0,0,0,2.21.92A3.94,3.94,0,0,0,255.37,403.23Z" transform="translate(-147.2 -355.09)" style="fill:#231f20"/><path d="M267.7,397.44l-3,6.8h-1.67l-.78-6.8h-.06c0,.15,0,.32-.05.51s0,.42-.08.67l-.9,5.62h-1.83l1.59-10h2.68l.74,6.78h.06l2.91-6.78H270l-1.59,10h-1.84l.9-5.62c.05-.33.1-.59.15-.79a2.07,2.07,0,0,1,.09-.39Z" transform="translate(-147.2 -355.09)" style="fill:#231f20"/><path d="M278.67,404.24h-2l1.23-7.85h-2.79l-1.25,7.85h-2l1.59-10h6.72Z" transform="translate(-147.2 -355.09)" style="fill:#231f20"/><path d="M286.86,400.66a2.36,2.36,0,0,1-.76,1.43,2,2,0,0,1-1.31.54.72.72,0,0,1-.53-.21.9.9,0,0,1-.21-.67c0-.06,0-.17,0-.32a1.6,1.6,0,0,1,.56-1.1,2.47,2.47,0,0,1,1-.38,5,5,0,0,0,1-.27,1.81,1.81,0,0,0,.49-.29Zm2.51-3.76c0-.07,0-.18.06-.33v-.3a2.13,2.13,0,0,0-.56-1.56,2.71,2.71,0,0,0-2-.69,3.86,3.86,0,0,0-2.27.6,4.58,4.58,0,0,0-1.62,2.87h1.88a2.4,2.4,0,0,1,.4-.92,1.23,1.23,0,0,1,1-.47,2,2,0,0,1,.81.16.69.69,0,0,1,.34.69c0,.06,0,.19-.05.4a.77.77,0,0,1-.31.51,1.07,1.07,0,0,1-.49.19l-1.83.36a3,3,0,0,0-1.74,1,4.11,4.11,0,0,0-.91,2.2,3,3,0,0,0-.06.44v.3a2.35,2.35,0,0,0,.54,1.67,1.72,1.72,0,0,0,1.3.5,2.74,2.74,0,0,0,1.59-.49,7,7,0,0,0,1-1v.62c0,.05,0,.13,0,.25s0,.21,0,.32h2.11l.06-.39a.41.41,0,0,1-.21-.22,1.35,1.35,0,0,1-.05-.47,6.87,6.87,0,0,1,.07-.87Z" transform="translate(-147.2 -355.09)" style="fill:#231f20"/><path d="M298.34,404.24h-2l.62-4h-2.79l-.64,4h-2l1.59-10h2l-.64,3.93h2.81l.62-3.93h2Z" transform="translate(-147.2 -355.09)" style="fill:#231f20"/><path d="M308.57,404.24h-2l1-6-3.62,6h-2.11l1.59-10h2l-1,6,3.61-6h2.1Z" transform="translate(-147.2 -355.09)" style="fill:#231f20"/><path d="M315.66,398.58a.88.88,0,0,1-1-1c0-.08,0-.19,0-.34a1.58,1.58,0,0,1,.48-.91,1.27,1.27,0,0,1,.89-.33h1.3l-.43,2.59Zm-1.88,5.66,2.49-4h.41l-.64,4h2l1.59-10h-3.31a3.83,3.83,0,0,0-2.42.72,3.33,3.33,0,0,0-1.14,2.2,3.64,3.64,0,0,0-.05.42v.29a2.94,2.94,0,0,0,.51,1.77,1.23,1.23,0,0,0,.93.58l-2.68,4Z" transform="translate(-147.2 -355.09)" style="fill:#231f20"/></svg>